<mxfile host="app.diagrams.net" agent="Mozilla/5.0 (Windows NT 10.0; Win64; x64) AppleWebKit/537.36 (KHTML, like Gecko) Chrome/132.0.0.0 Safari/537.36 OPR/117.0.0.0" version="26.1.1">
  <diagram name="Сторінка-1" id="8mClsJwZruz9TB_b8DzY">
    <mxGraphModel dx="1638" dy="886" grid="0" gridSize="10" guides="1" tooltips="1" connect="1" arrows="1" fold="1" page="1" pageScale="1" pageWidth="1169" pageHeight="827" math="0" shadow="0">
      <root>
        <mxCell id="0" />
        <mxCell id="1" parent="0" />
        <mxCell id="Z8d14qvC42FT2xur12PT-3" value="«interface»&lt;br&gt;&lt;b&gt;ISubscription&lt;/b&gt;" style="html=1;whiteSpace=wrap;" vertex="1" parent="1">
          <mxGeometry x="348" y="344" width="90" height="40" as="geometry" />
        </mxCell>
        <mxCell id="Z8d14qvC42FT2xur12PT-4" value="Domestic&lt;div&gt;Subscription&lt;/div&gt;" style="html=1;whiteSpace=wrap;" vertex="1" parent="1">
          <mxGeometry x="241" y="461.5" width="90" height="39" as="geometry" />
        </mxCell>
        <mxCell id="Z8d14qvC42FT2xur12PT-5" value="Educational&lt;div&gt;Subscription&lt;/div&gt;" style="html=1;whiteSpace=wrap;" vertex="1" parent="1">
          <mxGeometry x="348" y="461" width="90" height="40" as="geometry" />
        </mxCell>
        <mxCell id="Z8d14qvC42FT2xur12PT-6" value="Premium&lt;div&gt;Subscription&lt;/div&gt;" style="html=1;whiteSpace=wrap;" vertex="1" parent="1">
          <mxGeometry x="462" y="461.5" width="90" height="40" as="geometry" />
        </mxCell>
        <mxCell id="Z8d14qvC42FT2xur12PT-9" value="" style="endArrow=block;dashed=1;endFill=0;endSize=12;html=1;rounded=0;" edge="1" parent="1" source="Z8d14qvC42FT2xur12PT-5" target="Z8d14qvC42FT2xur12PT-3">
          <mxGeometry width="160" relative="1" as="geometry">
            <mxPoint x="494" y="482" as="sourcePoint" />
            <mxPoint x="563" y="411" as="targetPoint" />
          </mxGeometry>
        </mxCell>
        <mxCell id="Z8d14qvC42FT2xur12PT-10" value="" style="endArrow=block;dashed=1;endFill=0;endSize=12;html=1;rounded=0;" edge="1" parent="1" source="Z8d14qvC42FT2xur12PT-4" target="Z8d14qvC42FT2xur12PT-3">
          <mxGeometry width="160" relative="1" as="geometry">
            <mxPoint x="452" y="467" as="sourcePoint" />
            <mxPoint x="452" y="387" as="targetPoint" />
          </mxGeometry>
        </mxCell>
        <mxCell id="Z8d14qvC42FT2xur12PT-11" value="" style="endArrow=block;dashed=1;endFill=0;endSize=12;html=1;rounded=0;" edge="1" parent="1" source="Z8d14qvC42FT2xur12PT-6" target="Z8d14qvC42FT2xur12PT-3">
          <mxGeometry width="160" relative="1" as="geometry">
            <mxPoint x="588" y="491" as="sourcePoint" />
            <mxPoint x="588" y="411" as="targetPoint" />
            <Array as="points" />
          </mxGeometry>
        </mxCell>
        <mxCell id="Z8d14qvC42FT2xur12PT-13" value="&lt;p style=&quot;margin:0px;margin-top:4px;text-align:center;&quot;&gt;&lt;i&gt;&amp;lt;&amp;lt;Interface&amp;gt;&amp;gt;&lt;/i&gt;&lt;br&gt;&lt;b&gt;ICreator&lt;/b&gt;&lt;/p&gt;&lt;hr size=&quot;1&quot; style=&quot;border-style:solid;&quot;&gt;&lt;p style=&quot;margin:0px;margin-left:4px;&quot;&gt;&lt;/p&gt;&lt;p style=&quot;margin:0px;margin-left:4px;&quot;&gt;+ createSubscription(): ISubscription&lt;br&gt;&lt;/p&gt;" style="verticalAlign=top;align=left;overflow=fill;html=1;whiteSpace=wrap;" vertex="1" parent="1">
          <mxGeometry x="704" y="318" width="134" height="92" as="geometry" />
        </mxCell>
        <mxCell id="Z8d14qvC42FT2xur12PT-15" value="return" style="html=1;verticalAlign=bottom;endArrow=open;dashed=1;endSize=8;curved=0;rounded=0;" edge="1" parent="1" source="Z8d14qvC42FT2xur12PT-13" target="Z8d14qvC42FT2xur12PT-3">
          <mxGeometry relative="1" as="geometry">
            <mxPoint x="744" y="394" as="sourcePoint" />
            <mxPoint x="664" y="394" as="targetPoint" />
          </mxGeometry>
        </mxCell>
        <mxCell id="Z8d14qvC42FT2xur12PT-16" value="WebSiteCreator" style="html=1;whiteSpace=wrap;" vertex="1" parent="1">
          <mxGeometry x="594" y="451" width="100" height="45" as="geometry" />
        </mxCell>
        <mxCell id="Z8d14qvC42FT2xur12PT-17" value="MobileAppCreator" style="html=1;whiteSpace=wrap;" vertex="1" parent="1">
          <mxGeometry x="850" y="451" width="110" height="45" as="geometry" />
        </mxCell>
        <mxCell id="Z8d14qvC42FT2xur12PT-18" value="ManagerCallCreator" style="html=1;whiteSpace=wrap;" vertex="1" parent="1">
          <mxGeometry x="716" y="451" width="110" height="45" as="geometry" />
        </mxCell>
        <mxCell id="Z8d14qvC42FT2xur12PT-19" value="" style="endArrow=block;dashed=1;endFill=0;endSize=12;html=1;rounded=0;" edge="1" parent="1" source="Z8d14qvC42FT2xur12PT-17" target="Z8d14qvC42FT2xur12PT-13">
          <mxGeometry width="160" relative="1" as="geometry">
            <mxPoint x="879" y="609" as="sourcePoint" />
            <mxPoint x="803" y="531" as="targetPoint" />
            <Array as="points" />
          </mxGeometry>
        </mxCell>
        <mxCell id="Z8d14qvC42FT2xur12PT-20" value="" style="endArrow=block;dashed=1;endFill=0;endSize=12;html=1;rounded=0;" edge="1" parent="1" source="Z8d14qvC42FT2xur12PT-16" target="Z8d14qvC42FT2xur12PT-13">
          <mxGeometry width="160" relative="1" as="geometry">
            <mxPoint x="836" y="625" as="sourcePoint" />
            <mxPoint x="760" y="547" as="targetPoint" />
            <Array as="points" />
          </mxGeometry>
        </mxCell>
        <mxCell id="Z8d14qvC42FT2xur12PT-21" value="" style="endArrow=block;dashed=1;endFill=0;endSize=12;html=1;rounded=0;" edge="1" parent="1" source="Z8d14qvC42FT2xur12PT-18" target="Z8d14qvC42FT2xur12PT-13">
          <mxGeometry width="160" relative="1" as="geometry">
            <mxPoint x="902" y="628" as="sourcePoint" />
            <mxPoint x="826" y="550" as="targetPoint" />
            <Array as="points" />
          </mxGeometry>
        </mxCell>
      </root>
    </mxGraphModel>
  </diagram>
</mxfile>
